<svg width="100" height="100" viewBox="0 0 350 250" fill="none" xmlns="http://www.w3.org/2000/svg">
<g clip-path="url(#clip0_38_2)">
<path d="M267.968 247.173C263.487 242.649 260.766 235.503 261.479 228.546C262.193 221.589 266.614 215.194 272.349 213.717C278.083 212.239 284.621 216.329 286.362 223.022C287.321 210.118 288.426 196.674 294.168 185.686C299.367 175.736 308.372 168.616 318.132 167.343C327.892 166.069 338.168 170.879 344.255 180.083C350.341 189.286 351.832 202.666 347.569 213.232C344.428 221.016 338.642 226.809 332.58 231.521C312.992 246.622 289.498 252.762 266.421 248.814L267.968 247.173Z" fill="#BCDCF8"/>
<path d="M334.603 171.146C326.55 178.983 319.162 187.748 312.547 197.313C302.193 212.233 293.815 228.96 287.704 246.913C287.256 248.222 289.037 248.793 289.479 247.497C299.478 218.321 315.439 192.605 335.905 172.701C336.824 171.807 335.515 170.26 334.603 171.146Z" fill="#3D6889"/>
<path d="M112.671 245.944C118.825 239.731 122.564 229.915 121.583 220.36C120.603 210.805 114.531 202.021 106.654 199.992C98.7775 197.963 89.7988 203.58 87.4064 212.772C86.0898 195.049 84.5726 176.584 76.6858 161.491C69.5445 147.825 57.1756 138.046 43.7706 136.297C30.3655 134.548 16.2518 141.155 7.89152 153.796C-0.468717 166.436 -2.51569 184.814 3.33961 199.326C7.65299 210.017 15.5998 217.974 23.926 224.447C50.4896 245.098 83.4418 253.71 114.796 248.197" fill="#BCDCF8"/>
<path d="M21.1473 141.521C32.2082 152.285 42.3553 164.323 51.442 177.462C60.5301 190.587 68.5312 204.734 75.3329 219.705C79.1348 228.104 82.5501 236.743 85.5636 245.586C86.178 247.385 83.7331 248.168 83.1255 246.389C77.7879 230.799 71.1842 215.872 63.4092 201.821C55.672 187.821 46.8164 174.75 36.9666 162.794C31.3956 156.034 25.5177 149.645 19.3595 143.657C18.0973 142.429 19.8955 140.303 21.1473 141.521L21.1473 141.521Z" fill="#3D6889"/>
<path d="M251.236 249.453H104.396V69.4527C104.396 31.1563 130.474 0 162.529 0H193.103C225.158 0 251.236 31.1563 251.236 69.4527V249.453Z" fill="#BCDCF8"/>
<path d="M220.661 249.453H104.397V69.4526C104.365 54.7783 108.254 40.4749 115.498 28.6249C115.765 28.19 116.032 27.7607 116.307 27.3362C119.811 21.8454 123.981 17.0097 128.679 12.9888C128.944 12.7581 129.211 12.5314 129.481 12.3047C133.412 9.05428 137.665 6.39716 142.142 4.39378C142.408 4.27339 142.679 4.15276 142.95 4.03705C146.999 2.31062 151.196 1.12803 155.464 0.511105C155.729 0.467919 156.001 0.434126 156.272 0.400332C160.432 -0.131003 164.627 -0.131003 168.786 0.400332C169.057 0.434126 169.329 0.467915 169.596 0.511567C173.864 1.12853 178.06 2.31098 182.108 4.03707C182.379 4.15278 182.65 4.2734 182.916 4.39403C187.338 6.37214 191.541 8.98961 195.43 12.188C195.7 12.4098 195.971 12.6365 196.237 12.8632C198.871 15.1091 201.345 17.6112 203.633 20.3439C205.468 22.5358 207.179 24.8723 208.752 27.3376C209.026 27.7608 209.292 28.19 209.559 28.6242C216.804 40.4743 220.693 54.778 220.661 69.4526V249.453Z" fill="#3D6889"/>
<path d="M211.207 168.945C214.762 168.945 217.644 165.502 217.644 161.255C217.644 157.008 214.762 153.565 211.207 153.565C207.652 153.565 204.77 157.008 204.77 161.255C204.77 165.502 207.652 168.945 211.207 168.945Z" fill="#90C4F3"/>
<path d="M239.207 244.061H234.274L231.928 221.333L239.207 221.333L239.207 244.061Z" fill="#FFB8B8"/>
<path d="M230.751 242.378H240.263V249.533H224.762C224.762 248.593 224.917 247.663 225.218 246.795C225.519 245.927 225.96 245.138 226.516 244.473C227.072 243.809 227.733 243.282 228.459 242.922C229.186 242.563 229.965 242.378 230.751 242.378Z" fill="#2F2E41"/>
<path d="M263.747 244.061H258.814L256.468 221.333L263.747 221.333L263.747 244.061Z" fill="#FFB8B8"/>
<path d="M255.292 242.378H264.804V249.533H249.303C249.303 248.593 249.458 247.663 249.759 246.795C250.06 245.927 250.501 245.138 251.057 244.473C251.613 243.809 252.273 243.282 253 242.922C253.726 242.563 254.505 242.378 255.292 242.378Z" fill="#2F2E41"/>
<path d="M214.465 162.779C214.11 162.154 213.874 161.444 213.774 160.699C213.673 159.954 213.711 159.191 213.884 158.465C214.057 157.739 214.361 157.067 214.775 156.497C215.189 155.926 215.702 155.471 216.279 155.164L233.045 99.9541L241.295 105.333L222.152 158.093C222.52 159.286 222.51 160.598 222.122 161.782C221.735 162.965 220.998 163.938 220.05 164.515C219.103 165.093 218.011 165.235 216.981 164.915C215.952 164.595 215.056 163.835 214.465 162.779Z" fill="#FFB8B8"/>
<path d="M261.227 173.153C260.679 172.777 260.207 172.263 259.843 171.646C259.479 171.028 259.233 170.323 259.122 169.58C259.012 168.837 259.038 168.074 259.201 167.344C259.363 166.615 259.658 165.937 260.064 165.358L254.87 106.956L264.258 107.468L266.417 164.915C267.186 165.793 267.658 166.978 267.744 168.245C267.83 169.512 267.524 170.772 266.885 171.788C266.245 172.803 265.316 173.503 264.273 173.754C263.231 174.006 262.147 173.792 261.227 173.153Z" fill="#FFB8B8"/>
<path d="M246.25 89.7278C251.707 89.7278 256.13 84.4425 256.13 77.9227C256.13 71.403 251.707 66.1177 246.25 66.1177C240.792 66.1177 236.369 71.403 236.369 77.9227C236.369 84.4425 240.792 89.7278 246.25 89.7278Z" fill="#FFB8B8"/>
<path d="M261.164 159.87H231.375L231.411 159.593C231.464 159.179 236.72 118.047 232.844 104.591C232.455 103.268 232.489 101.821 232.94 100.527C233.391 99.2325 234.226 98.1834 235.285 97.5812H235.286C240.826 94.4641 251.461 90.6257 260.437 99.9407C261.758 101.334 262.79 103.075 263.45 105.027C264.111 106.979 264.382 109.087 264.243 111.186L261.164 159.87Z" fill="#3D6889"/>
<path d="M237.097 124.126L223.686 120.875L229.972 103.077C230.348 101.353 231.281 99.8781 232.567 98.9752C233.852 98.0722 235.385 97.8152 236.828 98.2605C238.272 98.7058 239.509 99.817 240.268 101.351C241.027 102.884 241.246 104.714 240.877 106.44L237.097 124.126Z" fill="#3D6889"/>
<path d="M254.273 130.161L253.467 108.08C252.855 103.929 254.844 100.005 257.903 99.3638C260.963 98.7248 263.95 101.604 264.565 105.785L267.595 126.418L254.273 130.161Z" fill="#3D6889"/>
<path d="M260.173 157.227C264.966 179.036 265.489 206.766 264.196 237.013L257.759 236.052L246.093 178.375L239.656 237.013L232.415 236.532C230.251 204.796 228.145 177.55 231.61 159.63L260.173 157.227Z" fill="#2F2E41"/>
<path d="M252.76 87.0461C250.917 89.392 247.494 88.1327 247.253 84.9278C247.235 84.679 247.236 84.4286 247.258 84.1801C247.382 82.7605 248.068 81.4716 247.904 79.9727C247.866 79.5997 247.75 79.2442 247.566 78.9399C246.097 76.5899 242.649 79.991 241.262 77.8636C240.412 76.5591 241.411 74.5053 240.759 73.0473C239.898 71.123 237.348 72.0723 235.749 71.0185C233.97 69.8459 234.076 66.5844 235.247 64.6006C236.676 62.1813 239.18 60.8903 241.653 60.7042C244.126 60.5182 246.583 61.3169 248.892 62.392C251.515 63.6135 254.117 65.3016 255.731 68.0576C257.694 71.4092 257.883 75.915 256.901 79.8341C256.304 82.2181 254.266 85.1304 252.76 87.0461Z" fill="#2F2E41"/>
<path d="M337.924 249.762H40.9088C40.782 249.762 40.6605 249.701 40.571 249.594C40.4814 249.487 40.4312 249.341 40.4312 249.19C40.4312 249.038 40.4814 248.893 40.571 248.786C40.6605 248.678 40.782 248.618 40.9088 248.617H337.924C338.05 248.618 338.172 248.678 338.261 248.786C338.351 248.893 338.401 249.038 338.401 249.19C338.401 249.341 338.351 249.487 338.261 249.594C338.172 249.701 338.05 249.762 337.924 249.762Z" fill="#3F3D56"/>
<path d="M188.678 197.303H136.379C135.69 197.308 135.028 196.985 134.538 196.407C134.048 195.829 133.769 195.043 133.764 194.22V54.7523C133.769 53.9295 134.048 53.1427 134.538 52.5646C135.028 51.9866 135.69 51.6644 136.379 51.6689H188.678C189.367 51.6644 190.029 51.9866 190.519 52.5646C191.009 53.1427 191.288 53.9295 191.293 54.7523V194.22C191.288 195.043 191.009 195.829 190.519 196.407C190.029 196.985 189.367 197.308 188.678 197.303Z" fill="#BCDCF8"/>
<path d="M191.293 96.7961H133.764V97.7574H191.293V96.7961Z" fill="black"/>
<path d="M191.494 151.642H133.965V152.604H191.494V151.642Z" fill="black"/>
<path d="M152.672 51.6689H151.868V197.784H152.672V51.6689Z" fill="black"/>
<path d="M172.788 51.6689H171.983V197.784H172.788V51.6689Z" fill="black"/>
</g>
<defs>
<clipPath id="clip0_38_2">
<rect width="350" height="250" fill="white"/>
</clipPath>
</defs>
</svg>
