<svg width="526" height="352" viewBox="0 0 526 352" fill="none" xmlns="http://www.w3.org/2000/svg">
<g clip-path="url(#clip0_46_4)">
<path d="M188.676 202.579C206.702 170.648 241.087 146.13 277.487 148.492C250.638 177.893 234.981 215.91 233.288 255.816C232.69 271.208 233.617 288.391 223.468 299.917C217.152 307.089 207.5 310.562 198.009 311.29C188.518 312.019 179.029 310.292 169.664 308.573L167.393 309.275C166.528 272.556 170.65 234.51 188.676 202.579Z" fill="#90C4F3"/>
<path d="M277.542 149.261C250.625 162.309 227.673 184.101 213.584 210.678C210.537 216.424 207.944 222.52 206.813 228.965C205.681 235.413 206.471 241.551 208.659 247.675C210.658 253.274 213.347 258.767 213.96 264.758C214.606 271.072 212.299 276.977 208.146 281.662C203.064 287.396 196.24 290.948 189.447 294.189C181.904 297.787 174.012 301.404 168.67 308.12C168.022 308.934 166.806 307.875 167.453 307.062C176.748 295.378 192.659 293.182 203.692 283.77C208.84 279.378 212.706 273.397 212.462 266.39C212.248 260.262 209.48 254.594 207.407 248.943C205.23 243.009 204.145 237.043 204.925 230.716C205.724 224.245 208.086 218.034 210.973 212.235C217.483 199.157 226.393 187.15 236.6 176.771C248.33 164.84 262.001 155.018 277.021 147.729C277.951 147.279 278.465 148.813 277.542 149.261V149.261Z" fill="#3D6889"/>
<path d="M217.711 201.796C213.584 198.758 210.665 194.342 209.473 189.336C208.282 184.33 208.897 179.061 211.207 174.469C211.678 173.542 213.131 174.235 212.66 175.163C210.5 179.435 209.928 184.343 211.047 189.003C212.166 193.662 214.902 197.765 218.761 200.571C219.599 201.182 218.544 202.404 217.711 201.796V201.796Z" fill="#3D6889"/>
<path d="M207.273 244.97C217.613 243.449 227.004 238.059 233.573 229.875C234.223 229.064 235.439 230.123 234.79 230.933C227.938 239.437 218.155 245.026 207.391 246.585C206.365 246.733 206.253 245.118 207.273 244.97V244.97Z" fill="white"/>
<path d="M249.125 166.832C250.478 168.342 252.183 169.491 254.086 170.174C255.989 170.857 258.031 171.054 260.028 170.746C261.051 170.585 261.163 172.201 260.146 172.36C257.937 172.69 255.683 172.47 253.579 171.72C251.474 170.97 249.584 169.712 248.074 168.057C247.919 167.913 247.824 167.715 247.808 167.503C247.793 167.291 247.858 167.081 247.991 166.916C248.131 166.754 248.328 166.655 248.541 166.639C248.753 166.623 248.963 166.693 249.125 166.832Z" fill="white"/>
<path d="M349.911 249.223C349.275 249.341 348.639 249.46 347.997 249.591C339.45 251.233 331.049 253.572 322.878 256.583C322.243 256.806 321.602 257.041 320.974 257.282C301.366 264.749 283.304 275.817 267.708 289.924C261.507 295.543 255.739 301.629 250.455 308.129C243.158 317.106 235.956 327.425 226.42 333.278C225.432 333.9 224.407 334.46 223.35 334.954L168.42 312.011C168.321 311.896 168.217 311.793 168.117 311.677L165.882 310.862C166.132 310.508 166.398 310.146 166.647 309.791C166.791 309.585 166.947 309.384 167.09 309.178C167.19 309.042 167.291 308.906 167.373 308.778C167.406 308.733 167.439 308.688 167.467 308.655C167.55 308.526 167.639 308.416 167.717 308.3C169.198 306.272 170.697 304.25 172.212 302.235C172.217 302.223 172.218 302.223 172.235 302.215C183.82 286.894 196.777 272.411 211.505 260.37C211.948 260.008 212.396 259.633 212.864 259.281C219.533 253.89 226.628 249.057 234.078 244.831C238.165 242.53 242.366 240.438 246.663 238.565C257.775 233.745 269.571 230.716 281.618 229.587C305.634 227.342 330.096 232.855 348.515 248.048C348.986 248.437 349.446 248.821 349.911 249.223Z" fill="#90C4F3"/>
<path d="M349.499 249.873C320.205 243.973 288.85 247.457 261.71 260.136C255.843 262.877 250.127 266.171 245.371 270.632C240.612 275.094 237.573 280.474 235.658 286.69C233.907 292.372 232.769 298.389 229.677 303.544C226.417 308.977 221.045 312.293 214.927 313.516C207.442 315.013 199.869 313.712 192.507 312.181C184.333 310.481 175.87 308.585 167.589 310.708C166.585 310.965 166.248 309.382 167.249 309.125C181.657 305.432 195.674 313.324 210.111 312.498C216.847 312.113 223.509 309.681 227.505 303.938C230.998 298.916 232.177 292.712 233.9 286.943C235.71 280.886 238.41 275.464 242.816 270.886C247.323 266.203 252.923 262.676 258.695 259.796C271.713 253.301 286.006 249.116 300.361 247.016C316.861 244.602 333.649 245.048 349.999 248.334C351.011 248.538 350.504 250.076 349.499 249.873V249.873Z" fill="#3D6889"/>
<path d="M270.316 255.546C268.838 250.618 269.147 245.322 271.189 240.603C273.231 235.884 276.872 232.049 281.463 229.784C282.393 229.329 283.139 230.763 282.207 231.219C277.929 233.321 274.538 236.893 272.645 241.291C270.753 245.69 270.484 250.624 271.888 255.204C272.191 256.2 270.618 256.536 270.316 255.546Z" fill="#3D6889"/>
<path d="M236.169 283.691C245.335 288.745 256.055 290.134 266.193 287.582C267.197 287.329 267.535 288.911 266.532 289.165C255.978 291.8 244.824 290.331 235.298 285.051C234.39 284.547 235.266 283.189 236.169 283.691V283.691Z" fill="white"/>
<path d="M316.304 246.674C316.481 248.701 317.156 250.651 318.267 252.351C319.378 254.05 320.89 255.445 322.669 256.41C323.582 256.902 322.705 258.259 321.798 257.77C319.837 256.695 318.169 255.152 316.937 253.278C315.705 251.403 314.948 249.253 314.732 247.016C314.694 246.807 314.737 246.591 314.851 246.412C314.966 246.233 315.143 246.105 315.348 246.054C315.557 246.01 315.774 246.05 315.953 246.166C316.132 246.282 316.258 246.465 316.304 246.674V246.674Z" fill="white"/>
<path d="M245.273 287.074C237.58 249.619 227.964 237.131 227.964 237.131L224.29 234.262L219.872 230.807L219.894 230.363L218.846 230.004L218.6 229.812L218.196 229.5L218.132 229.57L217.995 229.713L198.004 222.87L172.642 214.195L160.897 198.824C158.985 196.32 156.522 194.297 153.703 192.912C150.884 191.527 147.784 190.819 144.648 190.842L107.14 191.122C102.069 191.16 97.1951 193.106 93.4769 196.579L68.824 219.606L30.4101 238.08L30.3452 238.015L29.9419 238.305L24.0066 241.163L24.2515 242.447L20.5779 245.116C20.5779 245.116 10.9618 256.736 3.26896 291.587C1.31197 300.455 0.348676 319.478 0.000977107 342.92C-0.0164878 344.105 0.200331 345.283 0.63882 346.384C1.07731 347.484 1.72872 348.486 2.55519 349.331C3.38165 350.176 4.36667 350.847 5.45298 351.305C6.53929 351.763 7.70521 352 8.88295 352H214.059V352H239.668C240.845 351.999 242.01 351.763 243.096 351.306C244.181 350.848 245.166 350.178 245.992 349.334C246.818 348.49 247.47 347.489 247.909 346.39C248.348 345.29 248.566 344.114 248.55 342.929C248.21 317.421 247.247 296.691 245.273 287.074Z" fill="#90C4F3"/>
<path d="M271.598 32.6643C263.615 32.6643 255.96 35.8575 250.315 41.5413C244.671 47.2252 241.5 54.9342 241.5 62.9724C241.5 71.0106 244.671 78.7196 250.315 84.4034C255.96 90.0873 263.615 93.2804 271.598 93.2804H495.902C503.884 93.2804 511.54 90.0873 517.184 84.4034C522.829 78.7196 526 71.0106 526 62.9724C526 54.9342 522.829 47.2252 517.184 41.5413C511.54 35.8575 503.884 32.6643 495.902 32.6643H271.598Z" fill="#90C4F3"/>
<path d="M271.598 38.7981C265.231 38.7981 259.124 41.345 254.622 45.8786C250.12 50.4121 247.591 56.561 247.591 62.9724C247.591 69.3838 250.12 75.5326 254.622 80.0662C259.124 84.5998 265.231 87.1467 271.598 87.1467H495.902C502.269 87.1467 508.375 84.5998 512.877 80.0662C517.379 75.5326 519.909 69.3838 519.909 62.9724C519.909 56.561 517.379 50.4121 512.877 45.8786C508.375 41.345 502.269 38.7981 495.902 38.7981H271.598Z" fill="#BCDCF8"/>
<path d="M131.784 176.654C158.922 176.654 180.922 154.5 180.922 127.173C180.922 99.8458 158.922 77.6926 131.784 77.6926C104.646 77.6926 82.646 99.8458 82.646 127.173C82.646 154.5 104.646 176.654 131.784 176.654Z" fill="#FFB8B8"/>
<path d="M119.214 174.231C119.004 173.765 118.795 173.298 118.586 172.83C118.666 172.832 118.746 172.844 118.826 172.846L119.214 174.231Z" fill="#2F2E41"/>
<path d="M81.2796 79.9426C83.7649 77.9463 86.6695 76.1094 89.8471 76.2126C93.0245 76.3158 96.2467 79.2056 95.5884 82.3375C101.425 71.9317 110.715 63.9284 121.827 59.7324C132.94 55.5365 145.165 55.4161 156.357 59.3922C164.254 62.1979 171.999 67.8109 173.813 76.0434C174.278 78.1567 174.378 80.474 175.689 82.1901C177.341 84.3537 180.502 84.8432 183.105 84.082C183.131 84.0744 183.157 84.0667 183.183 84.0589C183.623 83.9077 184.097 83.8928 184.546 84.0162C184.994 84.1396 185.395 84.3956 185.697 84.7511C185.999 85.1065 186.188 85.5451 186.24 86.0101C186.292 86.475 186.204 86.945 185.988 87.3592L183.754 91.5556C186.571 92.1879 189.497 92.1252 192.285 91.3729C192.748 91.2506 193.237 91.2756 193.686 91.4444C194.134 91.6132 194.52 91.9175 194.789 92.3157C195.059 92.7139 195.2 93.1864 195.193 93.6684C195.185 94.1504 195.03 94.6183 194.748 95.0079C187.38 105.194 175.07 111.772 162.508 111.695C153.58 111.64 144.56 108.542 135.871 110.609C132.51 111.409 129.369 112.957 126.679 115.138C123.989 117.32 121.818 120.08 120.325 123.217C118.833 126.354 118.057 129.787 118.054 133.265C118.051 136.743 118.821 140.178 120.309 143.317C117.639 140.377 112.479 141.073 109.749 143.956C107.018 146.838 106.311 151.141 106.587 155.115C107.007 161.193 109.372 166.92 111.865 172.494C90.9625 171.832 71.1919 157.066 64.5371 137.096C57.8544 117.042 64.8581 93.1339 81.2796 79.9426Z" fill="#90C4F3"/>
<path opacity="0.2" d="M48.3647 275.766L62.1468 351.275L70.4164 352L48.3647 275.766Z" fill="black"/>
<path opacity="0.2" d="M200.177 270.072L186.395 351.22L178.125 352L200.177 270.072Z" fill="black"/>
<path d="M93.0346 54.5305C90.3921 55.6416 87.6347 54.4239 86.4783 51.6352C85.3043 48.8039 86.4008 45.9298 89.0857 44.8009C91.7708 43.6718 94.4791 44.8925 95.6721 47.7695C96.8472 50.6033 95.7626 53.3834 93.0346 54.5305ZM87.9727 39.228L85.8715 40.1114C85.3467 40.3295 84.7596 40.3413 84.2265 40.1444C83.6934 39.9475 83.2531 39.5563 82.9927 39.0482L82.8888 38.8435C80.6281 34.7379 80.3692 29.7481 82.1235 24.0205C83.7487 18.8825 84.4237 15.269 83.0662 11.9954C81.4967 8.21047 78.1452 7.02484 73.8713 8.74236C72.2137 9.43935 71.6862 9.42824 70.3817 10.7313C70.098 11.0182 69.7598 11.2446 69.3872 11.3971C69.0147 11.5495 68.6155 11.6248 68.2134 11.6186C67.8248 11.614 67.441 11.5306 67.085 11.3734C66.729 11.2162 66.4081 10.9885 66.1414 10.7037C65.6276 10.155 65.3398 9.43031 65.336 8.67611C65.3322 7.92192 65.6128 7.19438 66.121 6.64042C68.3136 4.3292 70.9582 2.50073 73.8878 1.27039C83.0706 -2.59075 87.6933 3.10967 89.8087 8.21102C91.8778 13.2007 90.7139 17.8303 88.8438 23.8261C87.2766 28.8083 87.3679 32.5 89.1481 36.1707C89.2766 36.4482 89.3482 36.749 89.3583 37.055C89.3685 37.361 89.3172 37.666 89.2074 37.9515C89.0976 38.2371 88.9317 38.4974 88.7195 38.7167C88.5073 38.936 88.2533 39.1099 87.9727 39.2279L87.9727 39.228Z" fill="#90C4F3"/>
<path d="M321.144 77.4273H276.515C276.374 77.4283 276.233 77.401 276.102 77.3471C275.971 77.2931 275.851 77.2135 275.751 77.1129C275.65 77.0123 275.57 76.8927 275.516 76.7608C275.461 76.629 275.433 76.4877 275.433 76.3449C275.433 76.2021 275.461 76.0608 275.516 75.929C275.57 75.7972 275.65 75.6775 275.751 75.5769C275.851 75.4763 275.971 75.3967 276.102 75.3428C276.233 75.2888 276.374 75.2615 276.515 75.2625H321.144C321.427 75.2644 321.699 75.3793 321.899 75.5821C322.099 75.7849 322.211 76.0591 322.211 76.3449C322.211 76.6307 322.099 76.9049 321.899 77.1077C321.699 77.3105 321.427 77.4254 321.144 77.4273Z" fill="#3D6889"/>
<path d="M377.757 77.7879H333.129C332.987 77.7889 332.847 77.7616 332.716 77.7077C332.584 77.6537 332.465 77.5741 332.364 77.4735C332.264 77.3729 332.184 77.2533 332.129 77.1214C332.075 76.9896 332.047 76.8483 332.047 76.7055C332.047 76.5627 332.075 76.4214 332.129 76.2896C332.184 76.1578 332.264 76.0381 332.364 75.9375C332.465 75.8369 332.584 75.7573 332.716 75.7033C332.847 75.6494 332.987 75.6221 333.129 75.6231H377.757C377.899 75.6221 378.04 75.6494 378.171 75.7033C378.302 75.7573 378.422 75.8369 378.522 75.9375C378.623 76.0381 378.703 76.1578 378.757 76.2896C378.812 76.4214 378.84 76.5627 378.84 76.7055C378.84 76.8483 378.812 76.9896 378.757 77.1214C378.703 77.2533 378.623 77.3729 378.522 77.4735C378.422 77.5741 378.302 77.6537 378.171 77.7077C378.04 77.7616 377.899 77.7889 377.757 77.7879V77.7879Z" fill="#3D6889"/>
<path d="M434.371 78.1488H389.742C389.459 78.1468 389.187 78.0319 388.987 77.8291C388.787 77.6264 388.675 77.3521 388.675 77.0663C388.675 76.7805 388.787 76.5063 388.987 76.3035C389.187 76.1007 389.459 75.9859 389.742 75.9839H434.371C434.512 75.9829 434.653 76.0102 434.784 76.0642C434.915 76.1181 435.035 76.1977 435.135 76.2983C435.236 76.3989 435.316 76.5186 435.37 76.6504C435.425 76.7822 435.453 76.9236 435.453 77.0663C435.453 77.2091 435.425 77.3505 435.37 77.4823C435.316 77.6141 435.236 77.7337 435.135 77.8344C435.035 77.935 434.915 78.0145 434.784 78.0685C434.653 78.1225 434.512 78.1497 434.371 78.1488H434.371Z" fill="#3D6889"/>
<path d="M490.984 78.5096H446.356C446.072 78.5076 445.8 78.3927 445.6 78.19C445.4 77.9872 445.288 77.713 445.288 77.4271C445.288 77.1413 445.4 76.8671 445.6 76.6643C445.8 76.4616 446.072 76.3467 446.356 76.3447H490.984C491.268 76.3467 491.539 76.4616 491.739 76.6643C491.939 76.8671 492.052 77.1413 492.052 77.4271C492.052 77.713 491.939 77.9872 491.739 78.19C491.539 78.3927 491.268 78.5076 490.984 78.5096Z" fill="#3D6889"/>
<path d="M298.731 67.4656C303.312 67.4656 307.026 63.7261 307.026 59.1133C307.026 54.5004 303.312 50.761 298.731 50.761C294.151 50.761 290.437 54.5004 290.437 59.1133C290.437 63.7261 294.151 67.4656 298.731 67.4656Z" fill="#3D6889"/>
<path d="M355.687 67.4656C360.267 67.4656 363.981 63.7261 363.981 59.1133C363.981 54.5004 360.267 50.761 355.687 50.761C351.106 50.761 347.392 54.5004 347.392 59.1133C347.392 63.7261 351.106 67.4656 355.687 67.4656Z" fill="#3D6889"/>
<path d="M412.642 67.4656C417.223 67.4656 420.937 63.7261 420.937 59.1133C420.937 54.5004 417.223 50.761 412.642 50.761C408.061 50.761 404.348 54.5004 404.348 59.1133C404.348 63.7261 408.061 67.4656 412.642 67.4656Z" fill="#3D6889"/>
<path d="M469.598 67.4656C474.179 67.4656 477.892 63.7261 477.892 59.1133C477.892 54.5004 474.179 50.761 469.598 50.761C465.017 50.761 461.303 54.5004 461.303 59.1133C461.303 63.7261 465.017 67.4656 469.598 67.4656Z" fill="#3D6889"/>
</g>
<defs>
<clipPath id="clip0_46_4">
<rect width="526" height="352" fill="white"/>
</clipPath>
</defs>
</svg>
