<svg width="30" height="30" viewBox="0 0 50 51" fill="none" xmlns="http://www.w3.org/2000/svg">
<g clip-path="url(#clip0_40_2)">
<path d="M25 0C11.1688 0 0 11.4272 0 25.5C0 39.589 11.1894 51 25 51C38.8727 51 50 39.535 50 25.5C50 11.3941 38.7886 0 25 0ZM37.865 40.5189C34.3014 43.7042 29.7821 45.4444 25 45.4444C20.2187 45.4444 15.7002 43.7048 12.1369 40.5207C11.6549 40.09 11.437 39.428 11.5656 38.7877C12.7965 32.6549 16.6263 27.8182 21.5012 26.2269C18.9573 24.6909 17.2113 21.5352 17.2113 17.8889C17.2113 12.7342 20.6985 8.55556 25 8.55556C29.3015 8.55556 32.7887 12.7342 32.7887 17.8889C32.7887 21.5347 31.0432 24.6899 28.5001 26.2261C33.3749 27.8171 37.2048 32.6537 38.4362 38.7859C38.5646 39.4253 38.3463 40.0887 37.865 40.5189Z" fill="#3D6889"/>
</g>
<defs>
<clipPath id="clip0_40_2">
<rect width="50" height="51" fill="white"/>
</clipPath>
</defs>
</svg>
