<svg width="37" height="38" viewBox="0 0 37 38" fill="none" xmlns="http://www.w3.org/2000/svg">
<path d="M33.917 18.7L36.185 15.208C36.623 14.53 36.736 13.69 36.487 12.921C36.237 12.153 35.654 11.538 34.9 11.247L31.012 9.755L30.792 5.597C30.749 4.79 30.346 4.046 29.691 3.573C29.038 3.097 28.205 2.944 27.422 3.153L23.401 4.228L20.78 0.993C20.273 0.365 19.508 0 18.699 0C17.891 0 17.128 0.365 16.617 0.992L13.996 4.227L9.97496 3.152C9.19696 2.945 8.36196 3.096 7.70696 3.572C7.05396 4.048 6.64896 4.793 6.60596 5.598L6.38796 9.754L2.50096 11.246C1.74696 11.537 1.16396 12.152 0.913956 12.92C0.663956 13.691 0.774956 14.529 1.21596 15.207L3.48196 18.7L1.21496 22.192C0.775956 22.87 0.663956 23.71 0.912956 24.476C1.16296 25.247 1.74596 25.862 2.49996 26.151L6.38696 27.642L6.60596 31.8C6.64796 32.61 7.05296 33.353 7.70696 33.826C8.36096 34.302 9.19396 34.457 9.97596 34.246L13.997 33.171L16.618 36.404C17.127 37.034 17.891 37.399 18.7 37.399C19.509 37.399 20.272 37.034 20.782 36.405L23.403 33.173L27.424 34.247C28.202 34.458 29.036 34.304 29.693 33.827C30.346 33.35 30.751 32.608 30.795 31.802L31.014 27.644L34.902 26.152C35.656 25.863 36.239 25.248 36.489 24.478C36.738 23.708 36.627 22.871 36.187 22.193L33.917 18.7ZM10.067 22.717L9.29096 19.618C9.07496 18.76 8.86496 17.723 8.75796 16.782L8.71796 16.794C8.44496 17.856 8.12496 18.985 7.72796 20.297L6.99496 22.717H5.32596L7.76196 14.685H9.88296L10.658 17.628C10.879 18.475 11.052 19.475 11.135 20.381H11.171C11.373 19.319 11.666 18.235 12.03 17.032L12.742 14.684H14.41L11.975 22.715H10.067V22.717ZM20.491 16.173H17.357L16.852 17.843H19.807L19.359 19.32H16.403L15.825 21.224H19.126L18.675 22.714H13.551L15.986 14.683H20.944L20.491 16.173ZM27.566 22.717H25.6L25.968 19.262C26.059 18.45 26.156 17.7 26.338 16.783H26.315C25.899 17.687 25.536 18.451 25.098 19.262L23.287 22.717H21.3L21.827 14.685H23.769L23.373 17.998C23.263 18.951 23.115 19.988 23.001 20.799H23.024C23.419 19.93 23.901 18.965 24.404 17.976L26.08 14.687H28.011L27.629 18.072C27.522 19.011 27.392 19.871 27.24 20.763H27.262C27.653 19.868 28.116 18.929 28.574 17.975L30.225 14.686H32.073L27.566 22.717Z" fill="white"/>
</svg>
