<svg width="30" height="35" viewBox="0 0 30 30" fill="none" xmlns="http://www.w3.org/2000/svg">
<path d="M11.5979 21.9123H1.875V6.13995L14.512 14.918C14.6622 15.0219 14.8307 15.0741 15 15.0741C15.1703 15.0741 15.3397 15.0214 15.4907 14.916L28.125 6.07272V22.9812H30V0H0V24.0501H11.5979V21.9123ZM28.125 2.13779V3.56427L14.9982 12.7521L1.875 3.63637V2.13779H28.125Z" fill="#3D6889"/>
<path d="M22.7195 26.4847C24.4344 26.4847 25.9668 24.6543 25.9668 21.5342C25.9668 18.0605 23.8323 15.5228 20.6579 15.5228C16.6079 15.5228 13.999 19.2253 13.999 23.5102C13.999 27.504 16.5349 30 19.5269 30C20.7492 30 21.7708 29.7712 22.7742 29.168L22.4823 28.2736C21.7343 28.752 20.7674 29.0016 19.7275 29.0016C17.0274 29.0016 15.0389 26.8591 15.0389 23.3854C15.0389 19.1629 17.5383 16.4796 20.512 16.4796C23.3397 16.4796 24.9269 18.6429 24.9269 21.6589C24.9269 24.0718 23.8871 25.4862 22.9567 25.4654C22.3546 25.4446 22.1357 24.7166 22.4094 23.1358L23.0296 19.3709C22.5553 19.1213 21.862 18.9341 21.0776 18.9341C18.5417 18.9341 16.7538 21.2846 16.7538 23.8639C16.7538 25.5071 17.666 26.4847 18.7241 26.4847C19.8187 26.4847 20.6579 25.8815 21.2964 24.6543H21.3694C21.3147 25.9231 21.9897 26.4847 22.7195 26.4847ZM19.162 25.3615C18.3592 25.3615 17.9579 24.6959 17.9579 23.7807C17.9579 21.763 19.2531 20.0366 20.8586 20.0366C21.2782 20.0366 21.5883 20.1198 21.7707 20.1822L21.3877 22.5326C21.187 23.8223 20.2201 25.3615 19.162 25.3615Z" fill="#3D6889"/>
</svg>
